<svg xmlns="http://www.w3.org/2000/svg" id="svg0.08780878432786032" viewBox="0 0 1200 896"><path d="M0 0 C396 0 792 0 1200 0 C1200 295.68 1200 591.36 1200 896 C804 896 408 896 0 896 C0 600.32 0 304.64 0 0 Z " transform="translate(0,0)" style="fill: #FEFEFE;"/><path d="M0 0 C1.04459827 -0.00173077 1.04459827 -0.00173077 2.11029953 -0.0034965 C4.43111681 -0.00613189 6.75186395 -0.00166656 9.07267761 0.00279331 C10.75837597 0.00235698 12.44407426 0.00148093 14.12977219 0.00020415 C18.75214663 -0.00202864 23.37449784 0.00196383 27.99686933 0.00698221 C32.98518704 0.01130398 37.97350345 0.00983906 42.96182251 0.00907993 C51.60119436 0.0085558 60.24055864 0.01169112 68.87992859 0.01731777 C81.37098061 0.02544765 93.86202899 0.02804952 106.35308337 0.02930576 C126.61939876 0.03149394 146.88571012 0.03814768 167.15202332 0.04760838 C186.83789551 0.05678855 206.5237666 0.06386642 226.2096405 0.06811619 C228.03004862 0.06851027 228.03004862 0.06851027 229.88723266 0.06891232 C235.97558458 0.07021737 242.06393651 0.07148107 248.15228844 0.07272422 C298.6546444 0.08308954 349.15699544 0.10097687 399.65934753 0.12304783 C399.65934753 12.33304783 399.65934753 24.54304783 399.65934753 37.12304783 C394.62100647 37.12669346 389.58266541 37.13033909 384.39164734 37.13409519 C338.15858735 37.16939321 291.92558412 37.22444737 245.69257334 37.30096878 C239.62957774 37.31098589 233.56658187 37.32083008 227.50358582 37.33056736 C226.2965838 37.33250873 225.08958178 37.33445011 223.84600395 37.33645031 C204.31820605 37.36744721 184.79041989 37.38444452 165.26260203 37.39624205 C145.21607134 37.40866557 125.16960215 37.4361941 105.12311029 37.47766089 C92.75950062 37.50276185 80.39599297 37.51616759 68.03235745 37.5144774 C59.54705829 37.51444758 51.06186285 37.52912778 42.57660413 37.55521211 C37.68556352 37.56981824 32.7947356 37.57809524 27.90367699 37.56885052 C23.41601807 37.56051223 18.92878493 37.57085802 14.44118887 37.59538445 C12.82719613 37.6010289 11.21316249 37.60011418 9.59918255 37.59156027 C-8.02752623 37.50622693 -23.24446896 40.55018992 -36.65315247 52.87304783 C-46.28301188 63.09490679 -49.89945214 75.51530372 -49.82844543 89.23095798 C-49.3688261 102.47184802 -43.76010348 114.06519461 -34.17658997 123.18164158 C-22.5611988 132.7243216 -11.43980584 135.42784788 3.26321411 135.37460423 C4.65616133 135.37674434 6.04910741 135.37977091 7.44205099 135.38360465 C11.26051208 135.39162975 15.07887495 135.38734492 18.89733565 135.38108587 C23.01958235 135.37654658 27.14181051 135.38359537 31.26405334 135.38938999 C38.40665289 135.39801951 45.54922767 135.39983186 52.69183159 135.39744282 C63.03622854 135.39434236 73.38057088 135.4059947 83.72495408 135.42199261 C100.53161224 135.44795425 117.33827045 135.46797163 134.14494324 135.48144627 C135.15060617 135.48225664 136.1562691 135.48306701 137.19240666 135.48390193 C151.44867694 135.49511186 165.70494332 135.50040196 179.96121741 135.50328906 C180.96415162 135.50349305 181.96708583 135.50369703 183.00041199 135.5039072 C184.00211797 135.50410714 185.00382396 135.50430708 186.03588467 135.50451307 C202.76943676 135.50825246 219.5029297 135.5273837 236.23645216 135.55900156 C246.54685228 135.57786936 256.85710038 135.58390653 267.16751296 135.57318439 C274.24221179 135.56684152 281.31680206 135.57497247 288.3914771 135.5942385 C292.4664078 135.604869 296.54107453 135.60916029 300.61600304 135.59576702 C332.07360601 135.5003553 332.07360601 135.5003553 344.65934753 140.12304783 C345.56026092 140.45366404 346.4611743 140.78428024 347.38938808 141.12491512 C349.4996094 141.94756125 351.50734907 142.86428756 353.53434753 143.87304783 C354.24212341 144.21738865 354.94989929 144.56172947 355.67912292 144.91650486 C361.66942694 147.93257321 366.75180609 151.53814752 371.65934753 156.12304783 C372.48692566 156.86039158 373.31450378 157.59773533 374.16716003 158.35742283 C389.11347332 172.34388113 398.1507278 191.39721685 398.94450378 211.89257908 C399.43271088 233.97615963 394.85719723 252.82547266 380.65934753 270.12304783 C380.09087097 270.87714939 379.52239441 271.63125095 378.93669128 272.40820408 C369.64271631 283.98992674 355.71554111 291.8448819 341.65934753 296.12304783 C340.8681213 296.37470103 340.07689507 296.62635423 339.26169229 296.88563329 C330.27657116 299.45536392 321.63176134 299.53621285 312.38536072 299.48381138 C310.65496086 299.4851216 308.92456159 299.487752 307.19416547 299.49157888 C302.4667441 299.4982532 297.73952854 299.48633346 293.01213336 299.47124469 C287.90391241 299.45824431 282.79570233 299.46267661 277.68746948 299.46495152 C268.84624754 299.46652172 260.00509221 299.45713893 251.16388702 299.440238 C238.38112476 299.41581831 225.59839458 299.40803969 212.81561151 299.40427402 C192.07454044 299.3977142 171.33350483 299.37776576 150.592453 299.34936619 C130.44890012 299.32181348 110.30535688 299.30058583 90.16178894 299.28784275 C88.91936447 299.28705458 87.67693999 299.28626641 86.39686629 299.28545436 C80.16375625 299.28153914 73.93064614 299.27774804 67.69753599 299.27401865 C16.01811402 299.24293734 -35.6612646 299.18928651 -87.34065247 299.12304783 C-87.34065247 287.24304783 -87.34065247 275.36304783 -87.34065247 263.12304783 C-82.23300919 263.1194022 -77.12536591 263.11575657 -71.86294556 263.11200047 C-25.01185246 263.0767148 21.83918457 263.02167585 68.69022907 262.94512688 C74.83219736 262.93510956 80.97416591 262.92526541 87.11613464 262.9155283 C88.33887666 262.91358692 89.56161869 262.91164555 90.82141349 262.90964535 C110.61313244 262.87863444 130.4048398 262.86164723 150.19657847 262.84985361 C170.50864719 262.83743735 190.82065513 262.80992518 211.13268548 262.76843476 C223.66367016 262.74331304 236.19455401 262.72992959 248.72556422 262.73161826 C257.32157169 262.73164804 265.91747655 262.71699855 274.51344403 262.69088355 C279.47094602 262.67625346 284.42823758 262.66802114 289.38575745 262.67724514 C293.93062107 262.68555804 298.47506269 262.67530614 303.01986388 262.65071121 C304.65802927 262.64504745 306.29623493 262.64601205 307.93438794 262.65453538 C322.83628992 262.72538473 336.72287656 260.258811 348.10075378 249.90039158 C358.63838487 238.9461161 361.25604349 227.6940881 360.99919128 213.04101658 C360.47246803 201.66510565 355.06460384 192.06592894 346.81950378 184.41601658 C338.68766244 177.84735128 329.29457876 174.00062682 318.84695148 173.99555588 C317.67767591 173.99254823 316.50840033 173.98954058 315.30369216 173.98644179 C314.0231759 173.98819216 312.74265963 173.98994254 311.42333984 173.99174595 C310.04591951 173.99004324 308.66849967 173.9878933 307.29108065 173.98533469 C304.29652475 173.9807407 301.3019895 173.97931624 298.30743027 173.98029995 C293.43431537 173.98189375 288.56122096 173.9766881 283.68811035 173.97067356 C276.61042093 173.96256067 269.5327351 173.95761659 262.45504189 173.9543829 C251.25503655 173.94888038 240.05506159 173.93197519 228.85507202 173.91304111 C225.02061563 173.90668414 221.18615916 173.90037567 217.35170269 173.89406395 C216.39334824 173.89248019 215.43499378 173.89089642 214.44759828 173.88926467 C203.53714514 173.87132645 192.62668985 173.85510273 181.7162323 173.84008884 C180.71893483 173.83871297 179.72163736 173.8373371 178.69411876 173.83591954 C162.55968171 173.8140247 146.4252525 173.80324199 130.29080323 173.7957181 C113.70872102 173.7876294 97.1267057 173.76427991 80.5446617 173.72776443 C70.3280721 173.7058081 60.11162032 173.69605369 49.89500835 173.70226476 C42.88053995 173.70545459 35.86618865 173.69400937 28.85175649 173.67137035 C24.8130516 173.65878103 20.77460779 173.65243642 16.73589325 173.66378689 C-22.5980199 173.76402169 -22.5980199 173.76402169 -40.34065247 164.12304783 C-41.30100403 163.63191502 -42.26135559 163.1407822 -43.25080872 162.63476658 C-51.43522652 158.2099007 -57.8089344 152.64548789 -64.34065247 146.12304783 C-65.45440247 145.02670017 -65.45440247 145.02670017 -66.59065247 143.90820408 C-83.89516598 125.75874361 -88.11067478 102.17046293 -87.70783997 78.00195408 C-87.3878718 69.61583805 -85.88645334 62.74482553 -82.34065247 55.12304783 C-82.029505 54.43211033 -81.71835754 53.74117283 -81.39778137 53.02929783 C-71.87443645 32.32838311 -57.37128718 18.72609039 -37.34065247 8.12304783 C-36.37514465 7.59711033 -35.40963684 7.07117283 -34.41487122 6.52929783 C-30.85069134 4.8989233 -27.26191359 3.90191953 -23.46565247 2.99804783 C-22.79662903 2.82918064 -22.12760559 2.66031345 -21.43830872 2.48632908 C-14.31471433 0.74317592 -7.33210768 -0.00225742 0 0 Z " transform="translate(444.3406524658203,194.87695217132568)" style="fill: #124E7E;"/><path d="M0 0 C5.55000509 4.17547112 11.64877688 9.23009895 14 16 C14.140625 18.40625 14.140625 18.40625 13 21 C10.40315997 23.12035206 7.55459204 24.69691615 4.625 26.3125 C3.84382813 26.76689453 3.06265625 27.22128906 2.2578125 27.68945312 C-3.55680216 31 -3.55680216 31 -7 31 C-8.18359375 29.2421875 -8.18359375 29.2421875 -9.4375 26.875 C-13.27909482 20.85586753 -18.30062192 18.183501 -25 16 C-31.65538967 14.95190714 -37.16027164 15.66301236 -43 19 C-46.1766327 21.75865471 -47.83138965 23.51622889 -48.3125 27.75 C-47.9141545 31.89279315 -46.55367851 33.73934674 -44 37 C-37.83302614 40.89644994 -30.37120382 42.90172166 -23.4609375 45.1328125 C-21.70052124 45.70358521 -21.70052124 45.70358521 -19.90454102 46.28588867 C-17.56135616 47.03711568 -15.2129964 47.77244245 -12.85913086 48.48950195 C-1.78209677 52.00267152 9.22394487 57.20299726 14.98828125 67.8203125 C19.2997794 77.26065442 19.03350453 87.65237413 16.03125 97.4375 C14.35104312 101.61255952 12.05088036 104.72063962 9 108 C8.37351562 108.6909375 7.74703125 109.381875 7.1015625 110.09375 C-2.31493388 119.47524081 -15.15115478 122.21291009 -28 122.25 C-43.62191231 122.21942614 -57.18751285 118.75082689 -68.9375 107.75 C-73.15958786 103.19170885 -77.07488486 97.96316152 -79 92 C-77.76139484 88.3807913 -76.05579918 87.14049708 -72.71875 85.421875 C-71.87699219 84.98359375 -71.03523438 84.5453125 -70.16796875 84.09375 C-69.28753906 83.6503125 -68.40710938 83.206875 -67.5 82.75 C-66.17935547 82.06164062 -66.17935547 82.06164062 -64.83203125 81.359375 C-58.30324591 78 -58.30324591 78 -56 78 C-55.56300781 78.99580078 -55.56300781 78.99580078 -55.1171875 80.01171875 C-51.68645378 87.40182127 -48.8711043 91.09840491 -41.4375 94.75 C-32.24298829 98.0934588 -23.01548233 98.28066417 -14.0390625 94.19140625 C-11.13522372 92.49471884 -10.02402898 91.21837678 -9 88 C-8.3287255 83.71081751 -8.26840304 81.10236103 -10.7265625 77.3984375 C-16.39635098 71.41690808 -25.70525791 69.75929141 -33.40551758 67.51049805 C-47.75516031 63.31964901 -63.03181644 58.71841912 -71 45 C-75.14703903 36.85462055 -75.35460427 26.92639367 -73.34375 18.12890625 C-69.43118962 7.31877176 -62.15946369 0.12850842 -52 -5 C-48.70956496 -6.26950118 -45.44092165 -7.23665561 -42 -8 C-41.20335937 -8.18304687 -40.40671875 -8.36609375 -39.5859375 -8.5546875 C-25.62422414 -10.95897047 -11.68525396 -7.86712387 0 0 Z " transform="translate(436,579)" style="fill: #144E7D;"/><path d="M0 0 C7.77221598 7.06565089 14.73820544 18.44123237 15.6953125 29.171875 C16.21907584 43.12434833 16.21907584 43.12434833 14.6953125 46.171875 C-8.0746875 46.171875 -30.8446875 46.171875 -54.3046875 46.171875 C-48.43916736 56.81084948 -48.43916736 56.81084948 -38.3046875 62.171875 C-25.76106003 63.37921503 -17.52033022 61.83360704 -7.3046875 54.171875 C-1.3646875 57.471875 4.5753125 60.771875 10.6953125 64.171875 C6.94258162 73.55370221 0.10593922 77.64518279 -8.82421875 81.7265625 C-21.52702871 87.00157898 -37.68379119 87.1376492 -50.44140625 81.87890625 C-62.37407702 76.16942417 -71.41847081 67.7231994 -76.3046875 55.171875 C-80.19810182 44.12413617 -80.53156236 28.26781549 -75.62890625 17.55078125 C-75.19191406 16.76574219 -74.75492187 15.98070312 -74.3046875 15.171875 C-73.54091797 13.76228516 -73.54091797 13.76228516 -72.76171875 12.32421875 C-65.95422338 0.74991883 -56.01835697 -6.71768788 -42.9296875 -10.203125 C-27.54919237 -12.86833715 -12.30428011 -9.76000524 0 0 Z " transform="translate(544.3046875,615.828125)" style="fill: #144E7C;"/><path d="M0 0 C0.70511719 0.60328125 1.41023437 1.2065625 2.13671875 1.828125 C2.76964844 2.32828125 3.40257812 2.8284375 4.0546875 3.34375 C10.99940464 9.41462856 15.3582238 18.93565023 17.13671875 27.828125 C17.13671875 34.428125 17.13671875 41.028125 17.13671875 47.828125 C-5.63328125 47.828125 -28.40328125 47.828125 -51.86328125 47.828125 C-48.13431495 55.43061822 -48.13431495 55.43061822 -42.73828125 60.328125 C-42.07570313 60.7921875 -41.413125 61.25625 -40.73046875 61.734375 C-34.61630229 65.3158951 -25.75625307 64.62409141 -18.86328125 63.828125 C-13.40003677 62.10253924 -9.41932314 59.24515642 -4.86328125 55.828125 C1.07671875 59.128125 7.01671875 62.428125 13.13671875 65.828125 C9.32529755 75.35667801 2.18769734 79.54298794 -6.86328125 83.828125 C-19.14908062 88.78969782 -35.4903619 88.52737033 -47.86328125 83.828125 C-60.90499832 77.46676948 -68.93928993 68.61630478 -74.1015625 55.08984375 C-77.79443333 44.12485806 -77.57944956 29.15831163 -73.2578125 18.46875 C-66.13036177 4.97251276 -56.82643879 -2.40477237 -42.8046875 -7.9921875 C-28.76972197 -12.27813396 -11.41704029 -8.9826631 0 0 Z " transform="translate(825.86328125,614.171875)" style="fill: #144E7D;"/><path d="M0 0 C0 8.58 0 17.16 0 26 C6.93 26 13.86 26 21 26 C21 33.26 21 40.52 21 48 C14.07 48 7.14 48 0 48 C0.09695353 53.7661837 0.19969554 59.53165164 0.31738281 65.29736328 C0.35565327 67.2585622 0.39050954 69.21983084 0.421875 71.18115234 C0.4675674 74.00122997 0.525555 76.82082838 0.5859375 79.640625 C0.59748871 80.51680481 0.60903992 81.39298462 0.62094116 82.29571533 C0.64081085 83.11626404 0.66068054 83.93681274 0.68115234 84.78222656 C0.69447601 85.50170471 0.70779968 86.22118286 0.7215271 86.96246338 C1.04669514 89.34166003 1.74607346 90.95879833 3 93 C6.16965142 94.58482571 9.63744541 94.37852823 13.125 94.5625 C15.72375 94.706875 18.3225 94.85125 21 95 C21 102.26 21 109.52 21 117 C17.18706166 117.08151175 13.37589477 117.14075085 9.5625 117.1875 C8.49322266 117.21263672 7.42394531 117.23777344 6.32226562 117.26367188 C-1.92501085 117.33933496 -9.76728227 116.57057402 -16.3125 111.0625 C-24.74905988 102.57159835 -24.41267352 91.66235153 -24.38212585 80.41856384 C-24.35115047 77.19540719 -24.30110348 73.97289421 -24.25 70.75 C-24.22990371 68.54038078 -24.21165848 66.3307439 -24.1953125 64.12109375 C-24.15156675 58.74695459 -24.08271108 53.37367493 -24 48 C-29.28 48 -34.56 48 -40 48 C-40 40.41 -40 32.82 -40 25 C-34.72 25 -29.44 25 -24 25 C-24 18.73 -24 12.46 -24 6 C-20.75195877 4.99322707 -17.50183949 3.99436414 -14.25 3 C-13.32960938 2.71382812 -12.40921875 2.42765625 -11.4609375 2.1328125 C-10.57148437 1.86210938 -9.68203125 1.59140625 -8.765625 1.3125 C-7.94868164 1.06113281 -7.13173828 0.80976562 -6.29003906 0.55078125 C-4 0 -4 0 0 0 Z " transform="translate(605,582)" style="fill: #174F7D;"/><path d="M0 0 C0 8.25 0 16.5 0 25 C6.93 25 13.86 25 21 25 C21 32.59 21 40.18 21 48 C14.07 48 7.14 48 0 48 C0.07405526 53.74822058 0.15693443 59.49490081 0.26245117 65.24243164 C0.29566354 67.19677702 0.32370695 69.15121747 0.34643555 71.10571289 C0.38004933 73.91854282 0.43236854 76.73050447 0.48828125 79.54296875 C0.49467117 80.41398727 0.5010611 81.2850058 0.50764465 82.18241882 C0.62002866 86.84076596 0.77921464 90.34001663 4 94 C5.89826088 94.76716622 5.89826088 94.76716622 8.01171875 94.70703125 C8.69451904 94.73514893 9.37731934 94.7632666 10.08081055 94.79223633 C11.37112183 94.80226685 11.37112183 94.80226685 12.6875 94.8125 C15.430625 94.874375 18.17375 94.93625 21 95 C21 102.26 21 109.52 21 117 C17.04091356 117.10879932 13.08487175 117.18770988 9.125 117.25 C8.01640625 117.28351563 6.9078125 117.31703125 5.765625 117.3515625 C-2.36218336 117.44718377 -9.77126384 116.62353137 -16.14599609 111.16113281 C-22.03510164 105.28968335 -24.10656977 97.75700666 -24.34057617 89.55029297 C-24.34010957 87.61419283 -24.32366605 85.67804432 -24.29296875 83.7421875 C-24.28872391 82.71312286 -24.28447906 81.68405823 -24.28010559 80.62380981 C-24.26346639 77.37392734 -24.22584231 74.12469141 -24.1875 70.875 C-24.17243407 68.65625903 -24.15874903 66.43750822 -24.14648438 64.21875 C-24.11361133 58.81225523 -24.06193257 53.4062368 -24 48 C-28.95 48 -33.9 48 -39 48 C-39 40.41 -39 32.82 -39 25 C-34.05 25 -29.1 25 -24 25 C-24 18.73 -24 12.46 -24 6 C-20.75195877 4.99322707 -17.50183949 3.99436414 -14.25 3 C-13.32960938 2.71382812 -12.40921875 2.42765625 -11.4609375 2.1328125 C-10.57148437 1.86210938 -9.68203125 1.59140625 -8.765625 1.3125 C-7.94868164 1.06113281 -7.13173828 0.80976562 -6.29003906 0.55078125 C-4 0 -4 0 0 0 Z " transform="translate(672,582)" style="fill: #164E7C;"/><path d="M0 0 C3.97915159 -0.02886984 7.95827653 -0.04675406 11.9375 -0.0625 C13.07380859 -0.07087891 14.21011719 -0.07925781 15.38085938 -0.08789062 C16.46044922 -0.09111328 17.54003906 -0.09433594 18.65234375 -0.09765625 C20.15269165 -0.10551147 20.15269165 -0.10551147 21.68334961 -0.11352539 C24 0 24 0 25 1 C25.09616807 2.68291696 25.12187691 4.36989561 25.12025452 6.05555725 C25.12162918 7.15077194 25.12300385 8.24598663 25.12442017 9.37438965 C25.12082489 10.58639038 25.11722961 11.79839111 25.11352539 13.04711914 C25.11367142 14.31522934 25.11381744 15.58333954 25.1139679 16.88987732 C25.11425585 20.37732422 25.10835945 23.86473701 25.10139394 27.35217595 C25.09516007 30.99303723 25.09455658 34.63389922 25.09336853 38.27476501 C25.09025531 45.17376972 25.08204205 52.07275865 25.07201904 58.9717564 C25.06085761 66.82410685 25.05534738 74.67645803 25.05032361 82.52881444 C25.03985943 98.68588553 25.02226017 114.84294076 25 131 C21.02084841 131.02886984 17.04172347 131.04675406 13.0625 131.0625 C11.92619141 131.07087891 10.78988281 131.07925781 9.61914062 131.08789062 C8.53955078 131.09111328 7.45996094 131.09433594 6.34765625 131.09765625 C5.34742432 131.10289307 4.34719238 131.10812988 3.31665039 131.11352539 C1 131 1 131 0 130 C-0.09616807 128.31708304 -0.12187691 126.63010439 -0.12025452 124.94444275 C-0.12162918 123.84922806 -0.12300385 122.75401337 -0.12442017 121.62561035 C-0.12082489 120.41360962 -0.11722961 119.20160889 -0.11352539 117.95288086 C-0.11367142 116.68477066 -0.11381744 115.41666046 -0.1139679 114.11012268 C-0.11425585 110.62267578 -0.10835945 107.13526299 -0.10139394 103.64782405 C-0.09516007 100.00696277 -0.09455658 96.36610078 -0.09336853 92.72523499 C-0.09025531 85.82623028 -0.08204205 78.92724135 -0.07201904 72.0282436 C-0.06085761 64.17589315 -0.05534738 56.32354197 -0.05032361 48.47118556 C-0.03985943 32.31411447 -0.02226017 16.15705924 0 0 Z " transform="translate(709,568)" style="fill: #134E7E;"/><path d="M0 0 C135.96 0 271.92 0 412 0 C412 0.33 412 0.66 412 1 C209.545 1.495 209.545 1.495 3 2 C3 11.9 3 21.8 3 32 C138.3 32 273.6 32 413 32 C413 32.33 413 32.66 413 33 C411.02 33.33 409.04 33.66 407 34 C408.65 34.33 410.3 34.66 412 35 C412 35.33 412 35.66 412 36 C276.04 36 140.08 36 0 36 C0 24.12 0 12.24 0 0 Z " transform="translate(357,458)" style="fill: #0C416E;"/><path d="M0 0 C0.69062962 -0.00230769 1.38125925 -0.00461538 2.09281704 -0.006993 C4.42418809 -0.01231798 6.75528699 -0.00328836 9.08664417 0.00558662 C10.76802775 0.00471507 12.44941106 0.00296501 14.13079292 0.00040829 C18.76448993 -0.00407905 23.39809507 0.00395742 28.03178036 0.01396441 C33.02359434 0.02257671 38.01540286 0.01968033 43.00722218 0.01815987 C51.66033315 0.0171096 60.31341404 0.02340093 68.96651745 0.03463554 C81.47755076 0.05086849 93.98856948 0.05609629 106.49961219 0.05861153 C126.79643811 0.0629921 147.09324799 0.07631102 167.39006519 0.09521675 C187.11011646 0.11356619 206.83016337 0.12772727 226.55022144 0.13623238 C228.37259999 0.13702055 228.37259999 0.13702055 230.23179426 0.13782464 C236.32649933 0.14043466 242.42120443 0.14296209 248.51590955 0.14544845 C299.10214694 0.16619222 349.68836473 0.20197684 400.27458668 0.24609566 C400.27458668 12.45609566 400.27458668 24.66609566 400.27458668 37.24609566 C266.29458668 37.24609566 132.31458668 37.24609566 -5.72541332 37.24609566 C-5.72541332 36.91609566 -5.72541332 36.58609566 -5.72541332 36.24609566 C127.26458668 35.91609566 260.25458668 35.58609566 397.27458668 35.24609566 C397.60458668 24.35609566 397.93458668 13.46609566 398.27458668 2.24609566 C263.63458668 2.24609566 128.99458668 2.24609566 -9.72541332 2.24609566 C-6.0700921 -0.19078516 -4.35707116 -0.0026788 0 0 Z " transform="translate(443.72541332244873,194.75390434265137)" style="fill: #295473;"/><path d="M0 0 C110.22 0 220.44 0 334 0 C334 0.33 334 0.66 334 1 C331.69 1 329.38 1 327 1 C327 1.66 327 2.32 327 3 C219.42 3 111.84 3 1 3 C0.67 2.01 0.34 1.02 0 0 Z " transform="translate(426,364)" style="fill: #0E4777;"/><path d="M0 0 C5.52895029 2.80396765 9.40121904 6.72158119 12.125 12.3125 C12.125 13.6325 12.125 14.9525 12.125 16.3125 C-2.725 16.3125 -17.575 16.3125 -32.875 16.3125 C-31.48929282 9.38396412 -29.0919384 5.92813862 -23.3125 2 C-16.09065409 -2.64000555 -8.00629199 -3.3314772 0 0 Z " transform="translate(806.875,627.6875)" style="fill: #F4F9FB;"/><path d="M0 0 C5.37818274 2.73711086 9.52885086 5.64778344 12.125 11.25 C12.125 12.9 12.125 14.55 12.125 16.25 C-2.725 16.25 -17.575 16.25 -32.875 16.25 C-30.53071714 8.04500997 -28.45848575 4.44836655 -21.25 0.375 C-14.08851844 -2.91310966 -7.27792029 -3.02944941 0 0 Z " transform="translate(522.875,627.75)" style="fill: #F4FAFB;"/><path d="M0 0 C3.97915159 -0.02886984 7.95827653 -0.04675406 11.9375 -0.0625 C13.07380859 -0.07087891 14.21011719 -0.07925781 15.38085938 -0.08789062 C16.46044922 -0.09111328 17.54003906 -0.09433594 18.65234375 -0.09765625 C20.15269165 -0.10551147 20.15269165 -0.10551147 21.68334961 -0.11352539 C24 0 24 0 25 1 C25.09616807 2.68291696 25.12187691 4.36989561 25.12025452 6.05555725 C25.12162918 7.15077194 25.12300385 8.24598663 25.12442017 9.37438965 C25.12082489 10.58639038 25.11722961 11.79839111 25.11352539 13.04711914 C25.11367142 14.31522934 25.11381744 15.58333954 25.1139679 16.88987732 C25.11425585 20.37732422 25.10835945 23.86473701 25.10139394 27.35217595 C25.09516007 30.99303723 25.09455658 34.63389922 25.09336853 38.27476501 C25.09025531 45.17376972 25.08204205 52.07275865 25.07201904 58.9717564 C25.06085761 66.82410685 25.05534738 74.67645803 25.05032361 82.52881444 C25.03985943 98.68588553 25.02226017 114.84294076 25 131 C21.02084841 131.02886984 17.04172347 131.04675406 13.0625 131.0625 C11.92619141 131.07087891 10.78988281 131.07925781 9.61914062 131.08789062 C8.53955078 131.09111328 7.45996094 131.09433594 6.34765625 131.09765625 C5.34742432 131.10289307 4.34719238 131.10812988 3.31665039 131.11352539 C1 131 1 131 0 130 C-0.09616807 128.31708304 -0.12187691 126.63010439 -0.12025452 124.94444275 C-0.12162918 123.84922806 -0.12300385 122.75401337 -0.12442017 121.62561035 C-0.12082489 120.41360962 -0.11722961 119.20160889 -0.11352539 117.95288086 C-0.11367142 116.68477066 -0.11381744 115.41666046 -0.1139679 114.11012268 C-0.11425585 110.62267578 -0.10835945 107.13526299 -0.10139394 103.64782405 C-0.09516007 100.00696277 -0.09455658 96.36610078 -0.09336853 92.72523499 C-0.09025531 85.82623028 -0.08204205 78.92724135 -0.07201904 72.0282436 C-0.06085761 64.17589315 -0.05534738 56.32354197 -0.05032361 48.47118556 C-0.03985943 32.31411447 -0.02226017 16.15705924 0 0 Z M2 2 C2 43.91 2 85.82 2 129 C8.93 129 15.86 129 23 129 C23 87.09 23 45.18 23 2 C16.07 2 9.14 2 2 2 Z " transform="translate(709,568)" style="fill: #486E8A;"/><path d="M0 0 C43.44965482 0.08174816 86.8992767 0.17390715 130.34887913 0.28005161 C135.47713343 0.29257066 140.60538794 0.3050034 145.73364258 0.31738281 C146.75459666 0.31984881 147.77555074 0.3223148 148.82744282 0.32485552 C165.36407961 0.36459195 181.90072325 0.39733538 198.43737996 0.42749982 C215.40231051 0.45860092 232.36721199 0.49720458 249.33210987 0.54279006 C259.80247978 0.57068745 270.2728284 0.59271508 280.74322551 0.60726251 C287.92069407 0.61779506 295.09812142 0.6356074 302.27555896 0.65916704 C306.41810791 0.67254909 310.56059905 0.68269961 314.70317078 0.68421364 C318.49634789 0.68567079 322.28938577 0.69627696 326.08252012 0.71413441 C328.10340939 0.72127562 330.1243259 0.71864821 332.14522558 0.71566427 C338.13500786 0.75276558 343.36095306 0.8979177 349 3 C346.63547485 3.78817505 345.19172132 4.0391053 342.72348899 3.53566116 C339.78482347 2.95767866 337.10592393 2.87152459 334.11167622 2.86692142 C332.33251189 2.86055986 332.33251189 2.86055986 330.51740485 2.85406977 C328.56858674 2.85464897 328.56858674 2.85464897 326.58039856 2.85523987 C325.18332512 2.85210493 323.78625261 2.84852985 322.38918132 2.84455246 C318.55060589 2.83486316 314.71204534 2.83130543 310.87345946 2.82870948 C306.73372222 2.82481307 302.59399809 2.81517616 298.45426941 2.80615234 C291.28160176 2.79121815 284.10893515 2.77967188 276.93625832 2.77020454 C266.56356888 2.75633453 256.19090382 2.73514816 245.8182319 2.71177601 C228.98665578 2.67386417 212.15507526 2.63889458 195.32348633 2.60717773 C194.31601066 2.60527724 193.308535 2.60337675 192.27052977 2.60141867 C177.9607278 2.57456451 163.65092238 2.55069503 149.34111323 2.52803367 C148.33272799 2.52643637 147.32434276 2.52483906 146.28540039 2.52319336 C145.27824031 2.52159989 144.27108023 2.52000643 143.23340014 2.51836468 C126.46157006 2.49163066 109.68976611 2.4572483 92.91796416 2.41653961 C82.5662439 2.39172284 72.2145518 2.37341958 61.86280646 2.363384 C54.77653247 2.35601275 47.6902963 2.34151671 40.60404734 2.32131977 C36.51068663 2.30989 32.41738704 2.30179669 28.32400894 2.30232811 C24.58187416 2.30275355 20.8398772 2.29412183 17.09777781 2.27807831 C15.09231627 2.27190887 13.08683193 2.27565495 11.08136493 2.27967364 C9.31393547 2.26940045 9.31393547 2.26940045 7.51080036 2.25891972 C6.48750639 2.25718347 5.46421242 2.25544722 4.40990955 2.25365835 C2 2 2 2 0 0 Z " transform="translate(427,367)" style="fill: #D7EAF8;"/><path d="M0 0 C0.66 0 1.32 0 2 0 C2 40.26 2 80.52 2 122 C7.61 122 13.22 122 19 122 C17 124 17 124 13.33984375 124.23046875 C11.87233136 124.22647733 10.40481791 124.21172158 8.9375 124.1875 C8.19177734 124.18685547 7.44605469 124.18621094 6.67773438 124.18554688 C1.14028159 124.14028159 1.14028159 124.14028159 0 123 C-0.09597204 121.40577964 -0.12187924 119.8072955 -0.12025452 118.21018982 C-0.12162918 117.17387421 -0.12300385 116.13755859 -0.12442017 115.06983948 C-0.12082489 113.92329391 -0.11722961 112.77674835 -0.11352539 111.59545898 C-0.11367142 110.39562378 -0.11381744 109.19578857 -0.1139679 107.95959473 C-0.11338894 104.66014809 -0.10835978 101.36076336 -0.10139394 98.0613277 C-0.09515973 94.61665703 -0.09455655 91.17198562 -0.09336853 87.72731018 C-0.09025541 81.2001727 -0.08204229 74.67305189 -0.07201904 68.14592177 C-0.0608573 60.71677984 -0.0553473 53.28763714 -0.05032361 45.85848892 C-0.03985966 30.57231628 -0.0222606 15.28616028 0 0 Z " transform="translate(712,572)" style="fill: #0A4777;"/><path d="M0 0 C0.33 0 0.66 0 1 0 C1.07622858 3.96388638 0.9681648 7.1273408 0 11 C-22.44 11 -44.88 11 -68 11 C-68 10.01 -68 9.02 -68 8 C-46.22 8 -24.44 8 -2 8 C-1.67 6.35 -1.34 4.7 -1 3 C-0.67 2.01 -0.34 1.02 0 0 Z " transform="translate(842,650)" style="fill: #0C4777;"/><path d="M0 0 C19.8 0 39.6 0 60 0 C59.67 0.66 59.34 1.32 59 2 C45.5777493 2.9945865 32.32169159 2.9707156 18.875 2.5625 C16.93361231 2.50908667 14.99220592 2.45634886 13.05078125 2.40429688 C8.36693625 2.27728228 3.68343634 2.14125259 -1 2 C-0.67 1.34 -0.34 0.68 0 0 Z " transform="translate(493,658)" style="fill: #0A4679;"/><path d="M0 0 C5.28 0 10.56 0 16 0 C16 0.33 16 0.66 16 1 C10.555 1.495 10.555 1.495 5 2 C4.67 7.94 4.34 13.88 4 20 C7.63 20 11.26 20 15 20 C15 20.33 15 20.66 15 21 C10.05 21 5.1 21 0 21 C0 14.07 0 7.14 0 0 Z " transform="translate(566,608)" style="fill: #0F436D;"/><path d="M0 0 C6.27 0 12.54 0 19 0 C19 0.33 19 0.66 19 1 C13.72 1 8.44 1 3 1 C2.83200063 6.46245573 2.67148227 11.92506151 2.51782227 17.38793945 C2.46452921 19.24542114 2.40921028 21.10284588 2.35180664 22.96020508 C2.26954036 25.63350141 2.19461726 28.30691942 2.12109375 30.98046875 C2.09405869 31.80773972 2.06702362 32.63501068 2.03916931 33.48735046 C1.93620349 37.48598979 1.97618443 41.0943332 3 45 C1 44 1 44 0 41 C-0.08567246 39.63407817 -0.11773647 38.26435142 -0.11352539 36.89575195 C-0.11344986 36.07512772 -0.11337433 35.25450348 -0.11329651 34.40901184 C-0.10813522 33.52767075 -0.10297394 32.64632965 -0.09765625 31.73828125 C-0.0962413 30.83248825 -0.09482635 29.92669525 -0.09336853 28.99345398 C-0.08777001 26.09976909 -0.07521781 23.20616151 -0.0625 20.3125 C-0.05748481 18.35091258 -0.05292193 16.38932394 -0.04882812 14.42773438 C-0.03865187 9.61843582 -0.01907613 4.80930447 0 0 Z " transform="translate(605,630)" style="fill: #DDF0F8;"/><path d="M0 0 C6.93 0 13.86 0 21 0 C21 6.93 21 13.86 21 21 C14.07 21 7.14 21 0 21 C0 20.67 0 20.34 0 20 C6.27 20 12.54 20 19 20 C19 14.06 19 8.12 19 2 C13.06 2 7.12 2 1 2 C0.67 1.34 0.34 0.68 0 0 Z " transform="translate(605,608)" style="fill: #124269;"/><path d="M0 0 C3.63 0 7.26 0 11 0 C11.33 16.83 11.66 33.66 12 51 C8.46267712 47.46267712 8.95155455 42.43144401 8.90234375 37.64111328 C8.90917488 36.03415148 8.9211147 34.42720529 8.9375 32.8203125 C8.94128662 31.96694305 8.94507324 31.11357361 8.94897461 30.23434448 C8.96111324 27.53117632 8.97976275 24.8281189 9 22.125 C9.02649586 18.5442741 9.04650352 14.96359888 9.0625 11.3828125 C9.07079834 10.55685577 9.07909668 9.73089905 9.08764648 8.87991333 C9.09618696 6.91974309 9.05341314 4.95946098 9 3 C7.50256881 1.50256881 6.01175761 1.66797307 3.9375 1.4375 C2.638125 1.293125 1.33875 1.14875 0 1 C0 0.67 0 0.34 0 0 Z " transform="translate(570,630)" style="fill: #E9FCFE;"/><path d="M0 0 C1.90592038 3.22700521 2.25661983 5.63251957 2.265625 9.359375 C2.26949219 10.91011719 2.26949219 10.91011719 2.2734375 12.4921875 C2.26570312 13.56726563 2.25796875 14.64234375 2.25 15.75 C2.25773438 16.80960937 2.26546875 17.86921875 2.2734375 18.9609375 C2.25846864 24.99338794 1.7578293 30.22427514 0 36 C-0.33 36 -0.66 36 -1 36 C-1.02472039 31.35522856 -1.04286968 26.71049543 -1.05493164 22.06567383 C-1.05996014 20.48558892 -1.06678378 18.90550866 -1.07543945 17.32543945 C-1.08756992 15.05418754 -1.09324313 12.78299715 -1.09765625 10.51171875 C-1.10281754 9.80536789 -1.10797882 9.09901703 -1.11329651 8.3712616 C-1.11364803 5.29745609 -0.9803186 2.9409558 0 0 Z " transform="translate(841,397)" style="fill: #14486E;"/><path d="M0 0 C0.33 9.9 0.66 19.8 1 30 C0.34 30 -0.32 30 -1 30 C-2.83499957 23.75226336 -3.3072203 18.11950454 -3.25 11.625 C-3.25773437 10.72394531 -3.26546875 9.82289063 -3.2734375 8.89453125 C-3.27085937 8.03472656 -3.26828125 7.17492187 -3.265625 6.2890625 C-3.26336914 5.51256348 -3.26111328 4.73606445 -3.25878906 3.93603516 C-2.98846395 1.91369727 -2.45124686 0 0 0 Z " transform="translate(360,272)" style="fill: #0D426B;"/><path d="M0 0 C0 0.99 0 1.98 0 3 C-3.5360396 4.7680198 -7.60571255 4.18464913 -11.5 4.1875 C-12.38042969 4.19974609 -13.26085937 4.21199219 -14.16796875 4.22460938 C-15.00972656 4.22654297 -15.85148437 4.22847656 -16.71875 4.23046875 C-17.49154297 4.23457764 -18.26433594 4.23868652 -19.06054688 4.24291992 C-21 4 -21 4 -23 2 C-15.26134446 -0.13480153 -7.99976044 -0.20483028 0 0 Z " transform="translate(520,605)" style="fill: #26587D;"/><path d="M0 0 C1.485 0.99 1.485 0.99 3 2 C3.13826162 4.73517547 3.09550493 7.16662423 2.875 9.875 C2.83890625 10.59558594 2.8028125 11.31617188 2.765625 12.05859375 C2.46364631 16.37371027 1.72997115 18.70998799 -1 22 C-1.02887814 18.52085059 -1.04675687 15.04173169 -1.0625 11.5625 C-1.07087891 10.56927734 -1.07925781 9.57605469 -1.08789062 8.55273438 C-1.09111328 7.60849609 -1.09433594 6.66425781 -1.09765625 5.69140625 C-1.10289307 4.81685791 -1.10812988 3.94230957 -1.11352539 3.04125977 C-1 1 -1 1 0 0 Z " transform="translate(391,269)" style="fill: #0E4974;"/><path d="M0 0 C1.85625 0.061875 1.85625 0.061875 3.75 0.125 C-1.50031216 5.37531216 -11.7847501 5.34183429 -18.8125 5.4375 C-22.99401139 5.42326103 -25.60007127 5.10063146 -29.25 3.125 C-28.63479492 3.10518066 -28.01958984 3.08536133 -27.38574219 3.06494141 C-24.59007458 2.96950273 -21.7951349 2.85990045 -19 2.75 C-17.54787109 2.70359375 -17.54787109 2.70359375 -16.06640625 2.65625 C-15.13183594 2.61757813 -14.19726562 2.57890625 -13.234375 2.5390625 C-11.94611816 2.49193115 -11.94611816 2.49193115 -10.63183594 2.44384766 C-6.67428154 1.91406434 -4.1295071 -0.13765024 0 0 Z " transform="translate(533.25,695.875)" style="fill: #214C6F;"/><path d="M0 0 C0.99 0.66 1.98 1.32 3 2 C-0.465 3.485 -0.465 3.485 -4 5 C-4 5.66 -4 6.32 -4 7 C-10.6 7 -17.2 7 -24 7 C-20.35233525 3.35233525 -19.24709139 3.62868046 -14.25 3.5 C-8.32959143 3.24100514 -8.32959143 3.24100514 -2.8125 1.3125 C-1.884375 0.879375 -0.95625 0.44625 0 0 Z " transform="translate(814,675)" style="fill: #2C5A7E;"/><path d="M0 0 C6.14745606 5.48286622 8.6846972 11.69851336 9.16796875 19.82421875 C9.17441406 20.76910156 9.18085938 21.71398437 9.1875 22.6875 C9.20167969 23.64011719 9.21585937 24.59273437 9.23046875 25.57421875 C9 28 9 28 7 30 C6.97421875 29.03320312 6.9484375 28.06640625 6.921875 27.0703125 C6.57828512 19.18336304 6.11732744 11.9916881 2 5 C1.34 4.67 0.68 4.34 0 4 C0 2.68 0 1.36 0 0 Z " transform="translate(445,640)" style="fill: #2D5677;"/><path d="M0 0 C0.33 0 0.66 0 1 0 C1.01981934 1.19077148 1.03963867 2.38154297 1.06005859 3.60839844 C1.13616995 8.02918532 1.22487894 12.44964543 1.31738281 16.87011719 C1.35564968 18.78281195 1.39050658 20.69557811 1.421875 22.60839844 C1.46757527 25.35898342 1.52556145 28.10907783 1.5859375 30.859375 C1.59748871 31.71368103 1.60903992 32.56798706 1.62094116 33.44818115 C1.64081085 34.24870911 1.66068054 35.04923706 1.68115234 35.87402344 C1.69447601 36.57573669 1.70779968 37.27744995 1.7215271 38.00042725 C2.20291867 41.45705612 3.55654288 43.55654288 6 46 C1.125 45.125 1.125 45.125 0 44 C-0.0927833 42.61839885 -0.11747043 41.23211962 -0.11352539 39.84741211 C-0.11341209 38.52615578 -0.11341209 38.52615578 -0.11329651 37.1782074 C-0.10555458 35.74227989 -0.10555458 35.74227989 -0.09765625 34.27734375 C-0.0962413 33.30213272 -0.09482635 32.32692169 -0.09336853 31.32215881 C-0.08775133 28.19390857 -0.07519593 25.06572877 -0.0625 21.9375 C-0.05748722 19.82226666 -0.05292393 17.70703219 -0.04882812 15.59179688 C-0.03777631 10.39450704 -0.02102146 5.19725855 0 0 Z " transform="translate(604,631)" style="fill: #204A69;"/><path d="M0 0 C1.09183594 -0.00257813 2.18367188 -0.00515625 3.30859375 -0.0078125 C6.47442524 0.12140511 9.45285545 0.53402683 12.5625 1.125 C10.21019648 3.47730352 9.75546706 3.38062003 6.5703125 3.390625 C5.78269531 3.39320313 4.99507813 3.39578125 4.18359375 3.3984375 C3.35988281 3.39070312 2.53617187 3.38296875 1.6875 3.375 C0.87152344 3.38273438 0.05554688 3.39046875 -0.78515625 3.3984375 C-1.57535156 3.39585937 -2.36554688 3.39328125 -3.1796875 3.390625 C-3.9001123 3.38836914 -4.62053711 3.38611328 -5.36279297 3.38378906 C-7.7333685 3.08809477 -9.37159593 2.29670679 -11.4375 1.125 C-7.56866676 0.21722907 -3.97019271 -0.00935263 0 0 Z " transform="translate(405.4375,569.875)" style="fill: #2D5A7C;"/><path d="M0 0 C-1.4219982 3.5549955 -2.63730051 4.36668882 -6 6 C-8.48587083 8.36157728 -10.83175849 10.82214469 -13.1875 13.3125 C-15 15 -15 15 -17 15 C-17 16.32 -17 17.64 -17 19 C-18.98 19.99 -18.98 19.99 -21 21 C-19.0600886 14.10253723 -7.89034203 0 0 0 Z " transform="translate(421,238)" style="fill: #E3F2F7;"/><path d="M0 0 C3.48670834 1.1094072 6.77484237 2.26337666 10 4 C8.73058503 7.91402949 7.48832306 9.79072873 4 12 C4 11.01 4 10.02 4 9 C4.66 9 5.32 9 6 9 C6 7.68 6 6.36 6 5 C4.68 6.32 3.36 7.64 2 9 C1.4465236 6.92446352 1 5.15634036 1 3 C0.34 2.34 -0.32 1.68 -1 1 C-0.67 0.67 -0.34 0.34 0 0 Z " transform="translate(545,676)" style="fill: #144B75;"/><path d="M0 0 C7.89516792 0.99331831 14.36839067 3.57090339 21 8 C21.33 8.66 21.66 9.32 22 10 C21.01 10 20.02 10 19 10 C19 9.34 19 8.68 19 8 C17.7625 7.690625 16.525 7.38125 15.25 7.0625 C13.83333333 6.70833333 12.41666667 6.35416667 11 6 C10.3296875 5.835 9.659375 5.67 8.96875 5.5 C5.95953122 4.73575396 2.98287377 3.86044436 0 3 C0 2.01 0 1.02 0 0 Z " transform="translate(521,606)" style="fill: #1E4C71;"/><path d="M0 0 C0.66 0.33 1.32 0.66 2 1 C2.22790573 5.47839257 2.42876818 9.95761664 2.625 14.4375 C2.68945312 15.69755859 2.75390625 16.95761719 2.8203125 18.25585938 C3.11131897 25.22182686 3.10131189 31.3172564 1 38 C0.01 38.495 0.01 38.495 -1 39 C-0.9285376 38.37633545 -0.8570752 37.7526709 -0.78344727 37.11010742 C0.04175832 29.16290918 0.11630792 21.29676817 0.0625 13.3125 C0.05798828 12.02666016 0.05347656 10.74082031 0.04882812 9.41601562 C0.03716001 6.27729347 0.02079015 3.13867272 0 0 Z " transform="translate(842,397)" style="fill: #BCD4E1;"/><path d="M0 0 C5.88107639 0.21701389 5.88107639 0.21701389 6.9921875 1.328125 C8.62475508 1.48527154 10.26354088 1.57897914 11.90234375 1.64453125 C12.89169922 1.68642578 13.88105469 1.72832031 14.90039062 1.77148438 C15.94130859 1.81080078 16.98222656 1.85011719 18.0546875 1.890625 C19.62186523 1.95540039 19.62186523 1.95540039 21.22070312 2.02148438 C23.81105634 2.12793725 26.40150936 2.2299526 28.9921875 2.328125 C28.9921875 2.658125 28.9921875 2.988125 28.9921875 3.328125 C17.7721875 3.328125 6.5521875 3.328125 -5.0078125 3.328125 C-2.0078125 0.328125 -2.0078125 0.328125 0 0 Z " transform="translate(435.0078125,330.671875)" style="fill: #0D4773;"/><path d="M0 0 C3.37936852 4.5058247 3.37936852 4.5058247 3.58203125 8.2578125 C3.62650391 9.04800781 3.67097656 9.83820312 3.71679688 10.65234375 C3.74837891 11.46832031 3.77996094 12.28429687 3.8125 13.125 C3.88887695 14.36056641 3.88887695 14.36056641 3.96679688 15.62109375 C4.06933988 17.74495061 4.04368251 19.87411786 4 22 C3.34 22.66 2.68 23.32 2 24 C2 23.34 2 22.68 2 22 C1.34 22 0.68 22 0 22 C0 14.74 0 7.48 0 0 Z " transform="translate(449,651)" style="fill: #0F4773;"/><path d="M0 0 C1.33333333 0 2.66666667 0 4 0 C4.08076963 2.45898655 4.14037143 4.91533742 4.1875 7.375 C4.22520508 8.42300781 4.22520508 8.42300781 4.26367188 9.4921875 C4.29296875 11.5234375 4.29296875 11.5234375 4 15 C2.515 15.99 2.515 15.99 1 17 C0.67 11.39 0.34 5.78 0 0 Z " transform="translate(806,402)" style="fill: #0E4570;"/><path d="M0 0 C0.66 0 1.32 0 2 0 C3.75135622 6.12974677 5.46978593 12.32553517 3 18.5 C2.67 18.995 2.34 19.49 2 20 C1.67 20 1.34 20 1 20 C0.67 13.4 0.34 6.8 0 0 Z " transform="translate(839,634)" style="fill: #1D4D71;"/><path d="M0 0 C0.05382106 2.62527189 0.09358313 5.24944713 0.125 7.875 C0.14175781 8.62136719 0.15851563 9.36773438 0.17578125 10.13671875 C0.1933959 12.09194461 0.10320189 14.04742021 0 16 C-0.66 16.66 -1.32 17.32 -2 18 C-3.18681726 14.43954823 -3.09689832 11.56191663 -3.0625 7.8125 C-3.05347656 6.54019531 -3.04445313 5.26789062 -3.03515625 3.95703125 C-3.02355469 2.98121094 -3.01195312 2.00539063 -3 1 C-1 0 -1 0 0 0 Z " transform="translate(366,599)" style="fill: #0C436E;"/><path d="M0 0 C-1.18078125 0.06058594 -2.3615625 0.12117187 -3.578125 0.18359375 C-5.1354277 0.26802582 -6.69271879 0.35267249 -8.25 0.4375 C-9.02730469 0.47681641 -9.80460938 0.51613281 -10.60546875 0.55664062 C-11.73662109 0.61948242 -11.73662109 0.61948242 -12.890625 0.68359375 C-13.92751465 0.73858032 -13.92751465 0.73858032 -14.98535156 0.79467773 C-17.03817939 0.94809117 -17.03817939 0.94809117 -19.11621094 1.57836914 C-21.6601104 2.14774633 -22.82809532 1.31865641 -25 0 C-17.50462593 -2.3985197 -6.81180496 -4.54120331 0 0 Z " transform="translate(806,607)" style="fill: #345D7C;"/><path d="M0 0 C5.87024368 2.67865488 10.76646153 5.06087179 15 10 C14.01 10 13.02 10 12 10 C12 9.34 12 8.68 12 8 C11.37351562 7.86722656 10.74703125 7.73445312 10.1015625 7.59765625 C9.28429687 7.42105469 8.46703125 7.24445312 7.625 7.0625 C6.81289063 6.88847656 6.00078125 6.71445312 5.1640625 6.53515625 C3 6 3 6 1 5 C1 4.34 1 3.68 1 3 C0.34 2.67 -0.32 2.34 -1 2 C-0.67 1.34 -0.34 0.68 0 0 Z " transform="translate(426,574)" style="fill: #204E73;"/><path d="M0 0 C0.609375 1.83203125 0.609375 1.83203125 1 4 C0.07078673 5.42700609 -0.87003168 6.84877967 -1.88671875 8.21484375 C-3.60032045 10.96261911 -4.34106034 13.94126386 -5.19140625 17.046875 C-6 19 -6 19 -9 21 C-8.47104903 15.60973772 -6.53666304 11.75770511 -3.9375 7.125 C-3.56044922 6.43664062 -3.18339844 5.74828125 -2.79492188 5.0390625 C-1.87106965 3.3550787 -0.93660333 1.67692533 0 0 Z " transform="translate(371,233)" style="fill: #204E70;"/><path d="M0 0 C0.515625 0.268125 1.03125 0.53625 1.5625 0.8125 C2.366875 1.204375 3.17125 1.59625 4 2 C5.5778125 2.7734375 5.5778125 2.7734375 7.1875 3.5625 C10.80971774 5.13396106 14.26179591 5.47226994 18.1796875 5.69140625 C18.78039062 5.79324219 19.38109375 5.89507813 20 6 C20.33 6.66 20.66 7.32 21 8 C15.35887486 9.59108658 11.16177424 8.42907023 6 6 C3.72951513 4.47705719 1.97241029 2.92183567 0 1 C0 0.67 0 0.34 0 0 Z " transform="translate(587,690)" style="fill: #245275;"/><path d="M0 0 C3 1 3 1 4.75 3.25 C6 6 6 6 6 8.6875 C5 11 5 11 2.4375 12.3125 C1.2309375 12.6528125 1.2309375 12.6528125 0 13 C0 12.01 0 11.02 0 10 C0.99 10 1.98 10 3 10 C2.35355339 6.88214887 2.35355339 6.88214887 0 6 C0 4.02 0 2.04 0 0 Z " transform="translate(444,589)" style="fill: #225175;"/><path d="M0 0 C0 0.33 0 0.66 0 1 C-0.85722656 1.24234375 -1.71445312 1.4846875 -2.59765625 1.734375 C-8.89894691 3.5814275 -14.487182 5.41025805 -20 9 C-20 7.68 -20 6.36 -20 5 C-18.88625 4.54625 -17.7725 4.0925 -16.625 3.625 C-13.03800992 2.27534014 -13.03800992 2.27534014 -11 0 C-7.00054632 -0.97764423 -3.97725259 -1.05280216 0 0 Z " transform="translate(434,233)" style="fill: #1E4E70;"/><path d="M0 0 C0 0.66 0 1.32 0 2 C-1.609375 3.55078125 -1.609375 3.55078125 -3.75 5.3125 C-6.90170177 7.98362313 -9.55769329 10.64182828 -12 14 C-12.33 13.01 -12.66 12.02 -13 11 C-10.54637132 6.2972117 -5.81727442 0 0 0 Z " transform="translate(788,628)" style="fill: #E0EFF5;"/><path d="M0 0 C2.5 1.3125 2.5 1.3125 5 3 C5 3.99 5 4.98 5 6 C-0.41538462 7.23076923 -0.41538462 7.23076923 -3.375 6.0625 C-3.91125 5.711875 -4.4475 5.36125 -5 5 C-3.35 3.35 -1.7 1.7 0 0 Z " transform="translate(820,670)" style="fill: #1D4D74;"/><path d="M0 0 C0 0.66 0 1.32 0 2 C-0.99 2 -1.98 2 -3 2 C-3.66 3.32 -4.32 4.64 -5 6 C-6.98 6 -8.96 6 -11 6 C-11 5.67 -11 5.34 -11 5 C-14.3 4.67 -17.6 4.34 -21 4 C-21 3.67 -21 3.34 -21 3 C-20.04738281 2.95101562 -19.09476562 2.90203125 -18.11328125 2.8515625 C-16.85902344 2.77679687 -15.60476563 2.70203125 -14.3125 2.625 C-12.45044922 2.52058594 -12.45044922 2.52058594 -10.55078125 2.4140625 C-6.86938182 1.9847684 -3.5929232 0 0 0 Z " transform="translate(530,676)" style="fill: #386283;"/><path d="M0 0 C0.66 0 1.32 0 2 0 C0.34608232 6.22725067 -1.55759004 11.53962558 -5 17 C-6.31625194 14.36749612 -5.74813658 13.19820944 -5.0625 10.375 C-4.86785156 9.55773437 -4.67320312 8.74046875 -4.47265625 7.8984375 C-4.31667969 7.27195312 -4.16070313 6.64546875 -4 6 C-3.01 6 -2.02 6 -1 6 C-0.67 4.02 -0.34 2.04 0 0 Z " transform="translate(838,436)" style="fill: #1A4D72;"/><path d="M0 0 C2.15377564 2.62198774 3.40072174 4.64404172 4 8 C1.39417629 8.93065133 0.35801776 9.14917407 -2.25 8.0625 C-2.8275 7.711875 -3.405 7.36125 -4 7 C-4 6.34 -4 5.68 -4 5 C-3.34 4.67 -2.68 4.34 -2 4 C-0.86649466 1.98330173 -0.86649466 1.98330173 0 0 Z " transform="translate(773,662)" style="fill: #20527A;"/><path d="M0 0 C0.66 0 1.32 0 2 0 C1.979375 1.2375 1.95875 2.475 1.9375 3.75 C1.93233319 6.6640825 2.06984442 9.20953327 3 12 C2.01 12.495 2.01 12.495 1 13 C-2 6.5 -2 6.5 -2 2 C-1.34 2 -0.68 2 0 2 C0 1.34 0 0.68 0 0 Z " transform="translate(754,664)" style="fill: #184A73;"/><path d="M0 0 C4.22113015 5.56421701 5.22675373 8.08401122 5 15 C1.96606046 11.53264053 0.0648423 7.47050174 -1 3 C-0.67 2.01 -0.34 1.02 0 0 Z " transform="translate(468,664)" style="fill: #1C4A71;"/><path d="M0 0 C2.9375 0.375 2.9375 0.375 6 1 C6.33 1.66 6.66 2.32 7 3 C9.30965848 4.05352843 11.6429774 5.05719096 14 6 C14 6.66 14 7.32 14 8 C8.76727367 6.36041242 3.84803364 4.61047965 -1 2 C-0.67 1.34 -0.34 0.68 0 0 Z " transform="translate(379,635)" style="fill: #285376;"/><path d="M0 0 C0 0.66 0 1.32 0 2 C-2.31 3.32 -4.62 4.64 -7 6 C-7 6.66 -7 7.32 -7 8 C-8.32 8.33 -9.64 8.66 -11 9 C-11 7.68 -11 6.36 -11 5 C-9.54462432 4.16151196 -8.08559627 3.32936066 -6.625 2.5 C-5.40683594 1.80390625 -5.40683594 1.80390625 -4.1640625 1.09375 C-2 0 -2 0 0 0 Z " transform="translate(369,663)" style="fill: #275374;"/><path d="M0 0 C2.475 0.99 2.475 0.99 5 2 C5 2.66 5 3.32 5 4 C6.65 4.33 8.3 4.66 10 5 C9.34 6.32 8.68 7.64 8 9 C7.01 9 6.02 9 5 9 C3.35 6.03 1.7 3.06 0 0 Z " transform="translate(424,601)" style="fill: #244F72;"/><path d="M0 0 C0.33 0 0.66 0 1 0 C1.05429959 1.74965358 1.09292823 3.49979787 1.125 5.25 C1.14820313 6.22453125 1.17140625 7.1990625 1.1953125 8.203125 C0.99862781 11.0196498 0.44568916 12.60949036 -1 15 C-3.03537906 10.92924187 -2.39271661 6.17814982 -1 2 C-0.67 1.34 -0.34 0.68 0 0 Z " transform="translate(359,261)" style="fill: #255276;"/><path d="M0 0 C0.33 0.66 0.66 1.32 1 2 C0.35330586 3.34313399 -0.31903578 4.67391178 -1 6 C-1.309375 7.216875 -1.61875 8.43375 -1.9375 9.6875 C-2.288125 10.780625 -2.63875 11.87375 -3 13 C-3.99 13.33 -4.98 13.66 -6 14 C-5.57202798 8.29370646 -3.15654048 4.58921384 0 0 Z " transform="translate(369,586)" style="fill: #255274;"/><path d="M0 0 C2.31 0 4.62 0 7 0 C7.79953138 3.28696233 8.09658936 4.71023192 7 8 C5.83035398 6.8572081 4.66435444 5.71068285 3.5 4.5625 C2.8503125 3.92441406 2.200625 3.28632812 1.53125 2.62890625 C0 1 0 1 0 0 Z " transform="translate(364,682)" style="fill: #1B4B72;"/><path d="M0 0 C1.34384766 0.14695312 1.34384766 0.14695312 2.71484375 0.296875 C3.61332031 0.38453125 4.51179688 0.4721875 5.4375 0.5625 C6.16839844 0.72234375 6.89929688 0.8821875 7.65234375 1.046875 C7.98234375 1.706875 8.31234375 2.366875 8.65234375 3.046875 C8.32234375 3.706875 7.99234375 4.366875 7.65234375 5.046875 C1.71234375 3.561875 1.71234375 3.561875 -4.34765625 2.046875 C-2.34765625 0.046875 -2.34765625 0.046875 0 0 Z " transform="translate(408.34765625,644.953125)" style="fill: #285679;"/><path d="M0 0 C1.98 0 3.96 0 6 0 C6 0.66 6 1.32 6 2 C7.65 2 9.3 2 11 2 C11 2.33 11 2.66 11 3 C6.05 3.33 1.1 3.66 -4 4 C-4.33 3.34 -4.66 2.68 -5 2 C-3.35 2 -1.7 2 0 2 C0 1.34 0 0.68 0 0 Z " transform="translate(509,623)" style="fill: #184972;"/><path d="M0 0 C0.33 0 0.66 0 1 0 C1.03738281 0.95261719 1.07476562 1.90523437 1.11328125 2.88671875 C1.17902344 4.14097656 1.24476563 5.39523437 1.3125 6.6875 C1.37050781 7.92886719 1.42851562 9.17023437 1.48828125 10.44921875 C2.01471507 14.10210685 3.01408703 15.95990267 5 19 C5 19.99 5 20.98 5 22 C4.01 21.67 3.02 21.34 2 21 C-0.10254829 16.41895109 -0.24975163 12.07668002 -0.125 7.125 C-0.11146484 6.09246094 -0.11146484 6.09246094 -0.09765625 5.0390625 C-0.07432513 3.35922162 -0.03846326 1.67956254 0 0 Z " transform="translate(362,600)" style="fill: #37607F;"/><path d="M0 0 C0.66 0.33 1.32 0.66 2 1 C-0.64 5.95 -3.28 10.9 -6 16 C-6.33 16 -6.66 16 -7 16 C-6.67 13.69 -6.34 11.38 -6 9 C-5.34 9 -4.68 9 -4 9 C-3.71125 7.88625 -3.4225 6.7725 -3.125 5.625 C-2 2 -2 2 0 0 Z " transform="translate(369,234)" style="fill: #D7EBF2;"/><path d="M0 0 C1.09570312 0.10183594 2.19140625 0.20367187 3.3203125 0.30859375 C4.16335938 0.39238281 5.00640625 0.47617188 5.875 0.5625 C5.875 1.2225 5.875 1.8825 5.875 2.5625 C3.91696493 2.61639087 1.95851091 2.65524217 0 2.6875 C-1.09054687 2.71070313 -2.18109375 2.73390625 -3.3046875 2.7578125 C-6.125 2.5625 -6.125 2.5625 -8.125 0.5625 C-5.28943413 -0.85528293 -3.1341294 -0.30007622 0 0 Z " transform="translate(424.125,199.4375)" style="fill: #0E4572;"/><path d="M0 0 C5.94 0.33 11.88 0.66 18 1 C18 1.33 18 1.66 18 2 C12.06 2.33 6.12 2.66 0 3 C0 2.01 0 1.02 0 0 Z " transform="translate(504,679)" style="fill: #0F416B;"/><path d="M0 0 C0.33 0.66 0.66 1.32 1 2 C-0.28655265 3.81613362 -1.57939995 5.62780954 -2.875 7.4375 C-3.95394531 8.95150391 -3.95394531 8.95150391 -5.0546875 10.49609375 C-7 13 -7 13 -9 14 C-8.50128936 9.54326841 -6.97995638 7.42312822 -3.9375 4.1875 C-3.20402344 3.39730469 -2.47054687 2.60710937 -1.71484375 1.79296875 C-1.14894531 1.20128906 -0.58304688 0.60960937 0 0 Z " transform="translate(828,460)" style="fill: #DAECF3;"/><path d="M0 0 C0.99 0.33 1.98 0.66 3 1 C3.33 4.63 3.66 8.26 4 12 C3.34 12 2.68 12 2 12 C0.86235649 7.73383684 0 4.43513689 0 0 Z " transform="translate(357,290)" style="fill: #18476D;"/><path d="M0 0 C0.33 0.66 0.66 1.32 1 2 C-0.10281127 3.27200971 -1.20730769 4.54255853 -2.3125 5.8125 C-2.92738281 6.52019531 -3.54226563 7.22789062 -4.17578125 7.95703125 C-4.77777344 8.63121094 -5.37976563 9.30539062 -6 10 C-6.48855469 10.60199219 -6.97710938 11.20398438 -7.48046875 11.82421875 C-7.98191406 12.21222656 -8.48335937 12.60023438 -9 13 C-11.1875 12.6875 -11.1875 12.6875 -13 12 C-12.48050781 11.63648438 -11.96101562 11.27296875 -11.42578125 10.8984375 C-6.90269987 7.63780582 -3.37935811 4.43540752 0 0 Z " transform="translate(554,682)" style="fill: #D6EAF2;"/><path d="M0 0 C0.74958984 0.05220703 1.49917969 0.10441406 2.27148438 0.15820312 C4.11887082 0.28763784 5.96574371 0.42436518 7.8125 0.5625 C7.8125 0.8925 7.8125 1.2225 7.8125 1.5625 C1.2125 1.8925 -5.3875 2.2225 -12.1875 2.5625 C-9.91174871 -1.98900257 -4.32262849 -0.32844426 0 0 Z " transform="translate(797.1875,679.4375)" style="fill: #104168;"/><path d="M0 0 C-1.5830577 4.2742558 -4.50568404 6.26531794 -8 9 C-8.66 8.67 -9.32 8.34 -10 8 C-8.90653119 6.65787938 -7.7998425 5.32652025 -6.6875 4 C-6.07261719 3.2575 -5.45773437 2.515 -4.82421875 1.75 C-3 0 -3 0 0 0 Z " transform="translate(768,616)" style="fill: #225073;"/><path d="M0 0 C2.475 0.99 2.475 0.99 5 2 C5.33 4.97 5.66 7.94 6 11 C5.01 11.495 5.01 11.495 4 12 C2.68 8.04 1.36 4.08 0 0 Z " transform="translate(801,391)" style="fill: #205073;"/><path d="M0 0 C0.66 0 1.32 0 2 0 C1.55520961 5.04095775 -0.66154153 7.41115715 -4 11 C-4.33 11 -4.66 11 -5 11 C-5 9.35 -5 7.7 -5 6 C-3.68 5.67 -2.36 5.34 -1 5 C-0.67 3.35 -0.34 1.7 0 0 Z " transform="translate(449,676)" style="fill: #1F4C70;"/><path d="M0 0 C1.32 0 2.64 0 4 0 C3.68289063 0.51046875 3.36578125 1.0209375 3.0390625 1.546875 C1.66023727 4.80214659 1.5706427 7.72843132 1.375 11.25 C1.30023437 12.51328125 1.22546875 13.7765625 1.1484375 15.078125 C1.09945312 16.04234375 1.05046875 17.0065625 1 18 C0.67 18 0.34 18 0 18 C0 12.06 0 6.12 0 0 Z " transform="translate(582,588)" style="fill: #16446C;"/><path d="M0 0 C0.33 0 0.66 0 1 0 C1.33 5.28 1.66 10.56 2 16 C1.01 16 0.02 16 -1 16 C-2.125 12.25 -2.125 12.25 -1 10 C-0.77377919 8.29636178 -0.59111527 6.58671299 -0.4375 4.875 C-0.35371094 3.96492188 -0.26992188 3.05484375 -0.18359375 2.1171875 C-0.12300781 1.41851562 -0.06242187 0.71984375 0 0 Z " transform="translate(393,277)" style="fill: #2E5F83;"/><path d="M0 0 C0.90492188 0.02320313 1.80984375 0.04640625 2.7421875 0.0703125 C4.10730469 0.09738281 4.10730469 0.09738281 5.5 0.125 C6.19867187 0.14820313 6.89734375 0.17140625 7.6171875 0.1953125 C7.6171875 0.8553125 7.6171875 1.5153125 7.6171875 2.1953125 C8.2771875 2.5253125 8.9371875 2.8553125 9.6171875 3.1953125 C2.6871875 2.7003125 2.6871875 2.7003125 -4.3828125 2.1953125 C-2.3828125 0.1953125 -2.3828125 0.1953125 0 0 Z " transform="translate(683.3828125,695.8046875)" style="fill: #265781;"/><path d="M0 0 C2.38672669 2.96283313 4.7353371 5.94270509 7 9 C5.68 9.33 4.36 9.66 3 10 C0.96564469 6.27034861 0 4.33094958 0 0 Z " transform="translate(491,666)" style="fill: #27557B;"/><path d="M0 0 C0.66 0 1.32 0 2 0 C2.33 3.63 2.66 7.26 3 11 C1.515 11.99 1.515 11.99 0 13 C0 8.71 0 4.42 0 0 Z " transform="translate(843,646)" style="fill: #D2E7F1;"/><path d="M0 0 C0.99 0 1.98 0 3 0 C3 2.64 3 5.28 3 8 C1.66666667 8 0.33333333 8 -1 8 C-0.67 5.36 -0.34 2.72 0 0 Z " transform="translate(753,632)" style="fill: #1E4F77;"/><path d="M0 0 C0.33 0 0.66 0 1 0 C1.125 2.375 1.125 2.375 1 5 C0.34 5.66 -0.32 6.32 -1 7 C-1.99 8.485 -1.99 8.485 -3 10 C-3.99 9.67 -4.98 9.34 -6 9 C-5.02501855 7.4972763 -4.04490611 5.99788037 -3.0625 4.5 C-2.51722656 3.6646875 -1.97195313 2.829375 -1.41015625 1.96875 C-0.94480469 1.3190625 -0.47945313 0.669375 0 0 Z " transform="translate(477,620)" style="fill: #245174;"/><path d="M0 0 C3.5 -0.3125 3.5 -0.3125 7 0 C7.66 0.66 8.32 1.32 9 2 C6.59454362 3.20272819 5.05003047 3.10071472 2.375 3.0625 C1.14910156 3.04896484 1.14910156 3.04896484 -0.1015625 3.03515625 C-1.04128906 3.01775391 -1.04128906 3.01775391 -2 3 C-1.34 2.01 -0.68 1.02 0 0 Z " transform="translate(772,490)" style="fill: #16486F;"/><path d="M0 0 C4.77135213 3.57851409 7.29076328 6.68572797 10 12 C9.01 12.495 9.01 12.495 8 13 C6.66094733 11.2126038 5.32890934 9.41995047 4 7.625 C3.2575 6.62726563 2.515 5.62953125 1.75 4.6015625 C0 2 0 2 0 0 Z " transform="translate(820,356)" style="fill: #1F4C6D;"/><path d="M0 0 C2.475 0.99 2.475 0.99 5 2 C3.73058503 5.91402949 2.48832306 7.79072873 -1 10 C-1 9.01 -1 8.02 -1 7 C-0.34 7 0.32 7 1 7 C0.67 4.69 0.34 2.38 0 0 Z " transform="translate(550,678)" style="fill: #2C5575;"/><path d="M0 0 C1.15518918 0.90484792 2.29885406 1.8244206 3.4375 2.75 C4.07558594 3.26046875 4.71367188 3.7709375 5.37109375 4.296875 C7.18810554 6.19667629 7.60423197 7.43586908 8 10 C7.38125 9.505 6.7625 9.01 6.125 8.5 C4.16119096 6.80777227 4.16119096 6.80777227 2 7 C1.34 4.69 0.68 2.38 0 0 Z " transform="translate(826,615)" style="fill: #1B496D;"/><path d="M0 0 C2.7885289 -0.22107787 5.34653181 -0.28107535 8.125 -0.1875 C8.87910156 -0.17396484 9.63320313 -0.16042969 10.41015625 -0.14648438 C12.27374127 -0.11109985 14.13695978 -0.05729167 16 0 C16 0.33 16 0.66 16 1 C7.09 1.99 7.09 1.99 -2 3 C-1.34 2.01 -0.68 1.02 0 0 Z " transform="translate(395,593)" style="fill: #184468;"/><path d="M0 0 C-2.3129482 2.3129482 -3.47904875 2.49580975 -6.625 3.125 C-7.44226563 3.29257812 -8.25953125 3.46015625 -9.1015625 3.6328125 C-10.04128906 3.81457031 -10.04128906 3.81457031 -11 4 C-11.33 3.34 -11.66 2.68 -12 2 C-8.09971775 -0.60018816 -4.52565431 -0.15085514 0 0 Z " transform="translate(537,696)" style="fill: #255375;"/><path d="M0 0 C0.66 0 1.32 0 2 0 C3.06795656 5.57710648 2.82622671 10.39436958 2 16 C1.67 16 1.34 16 1 16 C0.67 10.72 0.34 5.44 0 0 Z " transform="translate(839,634)" style="fill: #245379;"/><path d="M0 0 C1.60226148 4.00565371 0.47694566 7.08609399 -1 11 C-1.99 11.33 -2.98 11.66 -4 12 C-3.52494322 10.18641846 -3.04483958 8.37415821 -2.5625 6.5625 C-2.29566406 5.55316406 -2.02882813 4.54382813 -1.75390625 3.50390625 C-1 1 -1 1 0 0 Z " transform="translate(806,421)" style="fill: #275274;"/><path d="M0 0 C0.66 0.33 1.32 0.66 2 1 C1.02471263 2.33617352 0.04466681 3.6688751 -0.9375 5 C-1.48277344 5.7425 -2.02804687 6.485 -2.58984375 7.25 C-3.28787109 8.11625 -3.28787109 8.11625 -4 9 C-4.33 9 -4.66 9 -5 9 C-5 7.35 -5 5.7 -5 4 C-4.34 4 -3.68 4 -3 4 C-2.67 3.01 -2.34 2.02 -2 1 C-1.34 0.67 -0.68 0.34 0 0 Z " transform="translate(495,631)" style="fill: #1F4C70;"/><path d="M0 0 C0.66 0.33 1.32 0.66 2 1 C-1.44615385 5.8 -1.44615385 5.8 -4.25 6.8125 C-5.11625 6.9053125 -5.11625 6.9053125 -6 7 C-4.60667426 3.63279613 -3.0210714 2.0140476 0 0 Z " transform="translate(500,629)" style="fill: #DCEDF3;"/><path d="M0 0 C0.99 0.99 1.98 1.98 3 3 C1.25 6.875 1.25 6.875 -1 8 C-1.33 6.02 -1.66 4.04 -2 2 C-1.34 2 -0.68 2 0 2 C0 1.34 0 0.68 0 0 Z " transform="translate(397,302)" style="fill: #134974;"/><path d="M0 0 C0 0.33 0 0.66 0 1 C-3.3 1.66 -6.6 2.32 -10 3 C-10.33 2.01 -10.66 1.02 -11 0 C-6.98195309 -0.84098656 -3.98196457 -1.05404945 0 0 Z " transform="translate(434,233)" style="fill: #235479;"/><path d="M0 0 C2.475 0.495 2.475 0.495 5 1 C5.33 1.99 5.66 2.98 6 4 C6.66 4 7.32 4 8 4 C7.67 5.32 7.34 6.64 7 8 C6.401875 7.236875 5.80375 6.47375 5.1875 5.6875 C3.53040668 3.6516425 1.89702326 1.8021721 0 0 Z " transform="translate(441,636)" style="fill: #DEEFF4;"/><path d="M0 0 C3.48331435 3.01887244 4.79157144 5.56909529 6 10 C4.68 9.67 3.36 9.34 2 9 C1.855625 8.071875 1.71125 7.14375 1.5625 6.1875 C1.07899889 2.99274889 1.07899889 2.99274889 0 0 Z " transform="translate(550,624)" style="fill: #285373;"/><path d="M0 0 C0.99 0.33 1.98 0.66 3 1 C3.33 2.98 3.66 4.96 4 7 C3.01 6.67 2.02 6.34 1 6 C0.67 4.02 0.34 2.04 0 0 Z " transform="translate(650,681)" style="fill: #1C4B70;"/><path d="M0 0 C-0.33 0.99 -0.66 1.98 -1 3 C-3.875 3.125 -3.875 3.125 -7 3 C-7.66 2.34 -8.32 1.68 -9 1 C-5.846632 0.29925156 -3.27275026 0 0 0 Z " transform="translate(506,606)" style="fill: #205075;"/><path d="M0 0 C2.11180592 2.57089417 3.66306057 4.63060567 4 8 C3.34 8.66 2.68 9.32 2 10 C1.67 7.69 1.34 5.38 1 3 C0.34 3 -0.32 3 -1 3 C-0.67 2.01 -0.34 1.02 0 0 Z " transform="translate(834,375)" style="fill: #27567A;"/><path d="M0 0 C-0.99730136 2.4932534 -1.65074531 3.77467439 -3.9375 5.25 C-6 6 -6 6 -9 6 C-3.2 0 -3.2 0 0 0 Z " transform="translate(421,238)" style="fill: #DAEDF3;"/><path d="M0 0 C0 2 0 4 0 6 C-1.98 6.66 -3.96 7.32 -6 8 C-2.25 2.25 -2.25 2.25 0 0 Z " transform="translate(378,225)" style="fill: #214F70;"/><path d="M0 0 C0.33 0.66 0.66 1.32 1 2 C0.34 2 -0.32 2 -1 2 C-0.67 3.32 -0.34 4.64 0 6 C-2.97 5.505 -2.97 5.505 -6 5 C-3.375 1.125 -3.375 1.125 0 0 Z " transform="translate(391,214)" style="fill: #14476E;"/><path d="M0 0 C2.31 0.33 4.62 0.66 7 1 C7.33 2.65 7.66 4.3 8 6 C1.125 2.25 1.125 2.25 0 0 Z " transform="translate(806,626)" style="fill: #1A486E;"/><path d="M0 0 C3.3 0.99 6.6 1.98 10 3 C10 3.66 10 4.32 10 5 C6.05140217 4.4359146 3.29120954 3.2568294 0 1 C0 0.67 0 0.34 0 0 Z " transform="translate(391,615)" style="fill: #D5E8F1;"/><path d="M0 0 C5.41538462 -0.36923077 5.41538462 -0.36923077 8.375 1.5 C8.91125 1.995 9.4475 2.49 10 3 C7.69 3 5.38 3 3 3 C3 2.34 3 1.68 3 1 C2.01 0.67 1.02 0.34 0 0 Z " transform="translate(790,338)" style="fill: #1A4A6F;"/><path d="M0 0 C0.99 0.33 1.98 0.66 3 1 C1.62308038 3.75383923 -0.36720042 4.51483101 -3 6 C-3 3 -3 3 -1.5 1.3125 C-0.7575 0.6628125 -0.7575 0.6628125 0 0 Z " transform="translate(819,668)" style="fill: #E7F5FA;"/><path d="M0 0 C2.475 0.495 2.475 0.495 5 1 C5 1.99 5 2.98 5 4 C5.66 4 6.32 4 7 4 C6.67 4.99 6.34 5.98 6 7 C4.02 4.69 2.04 2.38 0 0 Z " transform="translate(542,614)" style="fill: #CCE2EB;"/><path d="M0 0 C-2.31 1.32 -4.62 2.64 -7 4 C-7 3.01 -7 2.02 -7 1 C-3.375 -1.125 -3.375 -1.125 0 0 Z " transform="translate(772,612)" style="fill: #E1F3F8;"/><path d="M0 0 C0.66 0 1.32 0 2 0 C2.66 1.65 3.32 3.3 4 5 C3.34 5.66 2.68 6.32 2 7 C-0.125 6.625 -0.125 6.625 -2 6 C-1.34 5.67 -0.68 5.34 0 5 C0 3.35 0 1.7 0 0 Z " transform="translate(449,594)" style="fill: #D1E3EB;"/><path d="M0 0 C1.98 0.99 1.98 0.99 4 2 C3.67 3.98 3.34 5.96 3 8 C0.4345406 5.4345406 0.45953913 3.52313332 0 0 Z " transform="translate(840,389)" style="fill: #D0E6EE;"/></svg>